<svg xmlns="http://www.w3.org/2000/svg" xmlns:xlink="http://www.w3.org/1999/xlink" width="40" zoomAndPan="magnify" viewBox="0 0 30 30.000001" height="40" preserveAspectRatio="xMidYMid meet" version="1.0"><defs><g/><clipPath id="1d76c8a798"><path d="M 0.484375 0 L 29.515625 0 L 29.515625 29.03125 L 0.484375 29.03125 Z M 0.484375 0 " clip-rule="nonzero"/></clipPath><clipPath id="e1b5690bef"><path d="M 15 0 L 17.144531 3.128906 L 20.265625 0.988281 L 21.140625 4.683594 L 24.820312 3.820312 L 24.308594 7.582031 L 28.050781 8.113281 L 26.21875 11.433594 L 29.515625 13.289062 L 26.613281 15.722656 L 29.023438 18.648438 L 25.441406 19.863281 L 26.632812 23.464844 L 22.855469 23.296875 L 22.675781 27.089844 L 19.214844 25.5625 L 17.679688 29.03125 L 15 26.351562 L 12.320312 29.03125 L 10.785156 25.5625 L 7.324219 27.089844 L 7.144531 23.296875 L 3.367188 23.464844 L 4.558594 19.863281 L 0.976562 18.648438 L 3.386719 15.722656 L 0.484375 13.289062 L 3.78125 11.433594 L 1.949219 8.113281 L 5.691406 7.582031 L 5.179688 3.820312 L 8.859375 4.683594 L 9.734375 0.988281 L 12.855469 3.128906 Z M 15 0 " clip-rule="nonzero"/></clipPath></defs><g clip-path="url(#1d76c8a798)"><g clip-path="url(#e1b5690bef)"><path fill="#2ecc71" d="M 0.484375 0 L 29.515625 0 L 29.515625 29.03125 L 0.484375 29.03125 Z M 0.484375 0 " fill-opacity="1" fill-rule="nonzero"/></g></g><g fill="#000000" fill-opacity="1"><g transform="translate(2.748996, 17.419357)"><g><path d="M 0.5 -3.328125 L 3.234375 -3.328125 L 3.234375 -2.125 L 0.5 -2.125 Z M 0.5 -3.328125 "/></g></g></g><g fill="#000000" fill-opacity="1"><g transform="translate(6.483008, 17.419357)"><g><path d="M 5.4375 -1.28125 L 5.4375 0 L 0.3125 0 L 0.3125 -1.015625 L 2.9375 -3.484375 C 3.207031 -3.742188 3.390625 -3.96875 3.484375 -4.15625 C 3.585938 -4.351562 3.640625 -4.546875 3.640625 -4.734375 C 3.640625 -5.003906 3.546875 -5.210938 3.359375 -5.359375 C 3.171875 -5.503906 2.898438 -5.578125 2.546875 -5.578125 C 2.253906 -5.578125 1.988281 -5.519531 1.75 -5.40625 C 1.507812 -5.289062 1.3125 -5.117188 1.15625 -4.890625 L 0.015625 -5.625 C 0.273438 -6.019531 0.632812 -6.328125 1.09375 -6.546875 C 1.5625 -6.773438 2.097656 -6.890625 2.703125 -6.890625 C 3.203125 -6.890625 3.640625 -6.804688 4.015625 -6.640625 C 4.390625 -6.472656 4.679688 -6.238281 4.890625 -5.9375 C 5.109375 -5.644531 5.21875 -5.296875 5.21875 -4.890625 C 5.21875 -4.515625 5.140625 -4.164062 4.984375 -3.84375 C 4.828125 -3.519531 4.523438 -3.15625 4.078125 -2.75 L 2.53125 -1.28125 Z M 5.4375 -1.28125 "/></g></g></g><g fill="#000000" fill-opacity="1"><g transform="translate(12.190439, 17.419357)"><g><path d="M 3.28125 0.109375 C 2.71875 0.109375 2.21875 -0.0234375 1.78125 -0.296875 C 1.34375 -0.578125 1 -0.976562 0.75 -1.5 C 0.5 -2.03125 0.375 -2.660156 0.375 -3.390625 C 0.375 -4.117188 0.5 -4.742188 0.75 -5.265625 C 1 -5.785156 1.34375 -6.1875 1.78125 -6.46875 C 2.21875 -6.75 2.71875 -6.890625 3.28125 -6.890625 C 3.84375 -6.890625 4.34375 -6.75 4.78125 -6.46875 C 5.21875 -6.1875 5.5625 -5.785156 5.8125 -5.265625 C 6.0625 -4.742188 6.1875 -4.117188 6.1875 -3.390625 C 6.1875 -2.660156 6.0625 -2.03125 5.8125 -1.5 C 5.5625 -0.976562 5.21875 -0.578125 4.78125 -0.296875 C 4.34375 -0.0234375 3.84375 0.109375 3.28125 0.109375 Z M 3.28125 -1.203125 C 3.6875 -1.203125 4.007812 -1.378906 4.25 -1.734375 C 4.488281 -2.085938 4.609375 -2.640625 4.609375 -3.390625 C 4.609375 -4.128906 4.488281 -4.675781 4.25 -5.03125 C 4.007812 -5.382812 3.6875 -5.5625 3.28125 -5.5625 C 2.875 -5.5625 2.550781 -5.382812 2.3125 -5.03125 C 2.082031 -4.675781 1.96875 -4.128906 1.96875 -3.390625 C 1.96875 -2.640625 2.082031 -2.085938 2.3125 -1.734375 C 2.550781 -1.378906 2.875 -1.203125 3.28125 -1.203125 Z M 3.28125 -1.203125 "/></g></g></g><g fill="#000000" fill-opacity="1"><g transform="translate(18.758812, 17.419357)"><g><path d="M 1.9375 -3.109375 C 1.445312 -3.109375 1.046875 -3.273438 0.734375 -3.609375 C 0.421875 -3.953125 0.265625 -4.410156 0.265625 -4.984375 C 0.265625 -5.546875 0.421875 -5.992188 0.734375 -6.328125 C 1.046875 -6.671875 1.445312 -6.84375 1.9375 -6.84375 C 2.4375 -6.84375 2.84375 -6.671875 3.15625 -6.328125 C 3.46875 -5.992188 3.625 -5.546875 3.625 -4.984375 C 3.625 -4.410156 3.46875 -3.953125 3.15625 -3.609375 C 2.84375 -3.273438 2.4375 -3.109375 1.9375 -3.109375 Z M 5.984375 -6.765625 L 7.125 -6.765625 L 2.5 0 L 1.359375 0 Z M 1.9375 -3.90625 C 2.15625 -3.90625 2.328125 -3.992188 2.453125 -4.171875 C 2.585938 -4.359375 2.65625 -4.628906 2.65625 -4.984375 C 2.65625 -5.335938 2.585938 -5.601562 2.453125 -5.78125 C 2.328125 -5.957031 2.15625 -6.046875 1.9375 -6.046875 C 1.726562 -6.046875 1.554688 -5.953125 1.421875 -5.765625 C 1.296875 -5.585938 1.234375 -5.328125 1.234375 -4.984375 C 1.234375 -4.628906 1.296875 -4.359375 1.421875 -4.171875 C 1.554688 -3.992188 1.726562 -3.90625 1.9375 -3.90625 Z M 6.53125 0.078125 C 6.207031 0.078125 5.921875 0.00390625 5.671875 -0.140625 C 5.421875 -0.296875 5.222656 -0.515625 5.078125 -0.796875 C 4.929688 -1.085938 4.859375 -1.421875 4.859375 -1.796875 C 4.859375 -2.160156 4.929688 -2.484375 5.078125 -2.765625 C 5.222656 -3.054688 5.421875 -3.273438 5.671875 -3.421875 C 5.921875 -3.578125 6.207031 -3.65625 6.53125 -3.65625 C 7.03125 -3.65625 7.4375 -3.484375 7.75 -3.140625 C 8.0625 -2.804688 8.21875 -2.359375 8.21875 -1.796875 C 8.21875 -1.222656 8.0625 -0.765625 7.75 -0.421875 C 7.4375 -0.0859375 7.03125 0.078125 6.53125 0.078125 Z M 6.53125 -0.71875 C 6.75 -0.71875 6.921875 -0.804688 7.046875 -0.984375 C 7.179688 -1.171875 7.25 -1.441406 7.25 -1.796875 C 7.25 -2.140625 7.179688 -2.398438 7.046875 -2.578125 C 6.921875 -2.765625 6.75 -2.859375 6.53125 -2.859375 C 6.320312 -2.859375 6.148438 -2.769531 6.015625 -2.59375 C 5.890625 -2.414062 5.828125 -2.148438 5.828125 -1.796875 C 5.828125 -1.429688 5.890625 -1.160156 6.015625 -0.984375 C 6.148438 -0.804688 6.320312 -0.71875 6.53125 -0.71875 Z M 6.53125 -0.71875 "/></g></g></g></svg>