<svg xmlns="http://www.w3.org/2000/svg" xmlns:xlink="http://www.w3.org/1999/xlink" width="40" zoomAndPan="magnify" viewBox="0 0 30 30.000001" height="40" preserveAspectRatio="xMidYMid meet" version="1.0"><defs><g/><clipPath id="f66a1bac19"><path d="M 0.484375 0 L 29.515625 0 L 29.515625 29.03125 L 0.484375 29.03125 Z M 0.484375 0 " clip-rule="nonzero"/></clipPath><clipPath id="2a627a4163"><path d="M 15 0 L 17.144531 3.128906 L 20.265625 0.988281 L 21.140625 4.683594 L 24.820312 3.820312 L 24.308594 7.582031 L 28.050781 8.113281 L 26.21875 11.433594 L 29.515625 13.289062 L 26.613281 15.722656 L 29.023438 18.648438 L 25.441406 19.863281 L 26.632812 23.464844 L 22.855469 23.296875 L 22.675781 27.089844 L 19.214844 25.5625 L 17.679688 29.03125 L 15 26.351562 L 12.320312 29.03125 L 10.785156 25.5625 L 7.324219 27.089844 L 7.144531 23.296875 L 3.367188 23.464844 L 4.558594 19.863281 L 0.976562 18.648438 L 3.386719 15.722656 L 0.484375 13.289062 L 3.78125 11.433594 L 1.949219 8.113281 L 5.691406 7.582031 L 5.179688 3.820312 L 8.859375 4.683594 L 9.734375 0.988281 L 12.855469 3.128906 Z M 15 0 " clip-rule="nonzero"/></clipPath></defs><g clip-path="url(#f66a1bac19)"><g clip-path="url(#2a627a4163)"><path fill="#2ecc71" d="M 0.484375 0 L 29.515625 0 L 29.515625 29.03125 L 0.484375 29.03125 Z M 0.484375 0 " fill-opacity="1" fill-rule="nonzero"/></g></g><g fill="#000000" fill-opacity="1"><g transform="translate(6.010589, 17.419357)"><g><path d="M 0.5 -3.328125 L 3.234375 -3.328125 L 3.234375 -2.125 L 0.5 -2.125 Z M 0.5 -3.328125 "/></g></g></g><g fill="#000000" fill-opacity="1"><g transform="translate(9.744601, 17.419357)"><g><path d="M 2.703125 -4.234375 C 3.648438 -4.234375 4.351562 -4.039062 4.8125 -3.65625 C 5.269531 -3.269531 5.5 -2.757812 5.5 -2.125 C 5.5 -1.71875 5.394531 -1.34375 5.1875 -1 C 4.976562 -0.664062 4.660156 -0.394531 4.234375 -0.1875 C 3.816406 0.0078125 3.296875 0.109375 2.671875 0.109375 C 2.203125 0.109375 1.734375 0.046875 1.265625 -0.078125 C 0.804688 -0.203125 0.414062 -0.378906 0.09375 -0.609375 L 0.71875 -1.8125 C 0.976562 -1.613281 1.273438 -1.460938 1.609375 -1.359375 C 1.941406 -1.253906 2.285156 -1.203125 2.640625 -1.203125 C 3.035156 -1.203125 3.34375 -1.273438 3.5625 -1.421875 C 3.789062 -1.578125 3.90625 -1.796875 3.90625 -2.078125 C 3.90625 -2.367188 3.785156 -2.585938 3.546875 -2.734375 C 3.316406 -2.878906 2.910156 -2.953125 2.328125 -2.953125 L 0.59375 -2.953125 L 0.953125 -6.765625 L 5.078125 -6.765625 L 5.078125 -5.515625 L 2.25 -5.515625 L 2.140625 -4.234375 Z M 2.703125 -4.234375 "/></g></g></g><g fill="#000000" fill-opacity="1"><g transform="translate(15.500396, 17.419357)"><g><path d="M 1.9375 -3.109375 C 1.445312 -3.109375 1.046875 -3.273438 0.734375 -3.609375 C 0.421875 -3.953125 0.265625 -4.410156 0.265625 -4.984375 C 0.265625 -5.546875 0.421875 -5.992188 0.734375 -6.328125 C 1.046875 -6.671875 1.445312 -6.84375 1.9375 -6.84375 C 2.4375 -6.84375 2.84375 -6.671875 3.15625 -6.328125 C 3.46875 -5.992188 3.625 -5.546875 3.625 -4.984375 C 3.625 -4.410156 3.46875 -3.953125 3.15625 -3.609375 C 2.84375 -3.273438 2.4375 -3.109375 1.9375 -3.109375 Z M 5.984375 -6.765625 L 7.125 -6.765625 L 2.5 0 L 1.359375 0 Z M 1.9375 -3.90625 C 2.15625 -3.90625 2.328125 -3.992188 2.453125 -4.171875 C 2.585938 -4.359375 2.65625 -4.628906 2.65625 -4.984375 C 2.65625 -5.335938 2.585938 -5.601562 2.453125 -5.78125 C 2.328125 -5.957031 2.15625 -6.046875 1.9375 -6.046875 C 1.726562 -6.046875 1.554688 -5.953125 1.421875 -5.765625 C 1.296875 -5.585938 1.234375 -5.328125 1.234375 -4.984375 C 1.234375 -4.628906 1.296875 -4.359375 1.421875 -4.171875 C 1.554688 -3.992188 1.726562 -3.90625 1.9375 -3.90625 Z M 6.53125 0.078125 C 6.207031 0.078125 5.921875 0.00390625 5.671875 -0.140625 C 5.421875 -0.296875 5.222656 -0.515625 5.078125 -0.796875 C 4.929688 -1.085938 4.859375 -1.421875 4.859375 -1.796875 C 4.859375 -2.160156 4.929688 -2.484375 5.078125 -2.765625 C 5.222656 -3.054688 5.421875 -3.273438 5.671875 -3.421875 C 5.921875 -3.578125 6.207031 -3.65625 6.53125 -3.65625 C 7.03125 -3.65625 7.4375 -3.484375 7.75 -3.140625 C 8.0625 -2.804688 8.21875 -2.359375 8.21875 -1.796875 C 8.21875 -1.222656 8.0625 -0.765625 7.75 -0.421875 C 7.4375 -0.0859375 7.03125 0.078125 6.53125 0.078125 Z M 6.53125 -0.71875 C 6.75 -0.71875 6.921875 -0.804688 7.046875 -0.984375 C 7.179688 -1.171875 7.25 -1.441406 7.25 -1.796875 C 7.25 -2.140625 7.179688 -2.398438 7.046875 -2.578125 C 6.921875 -2.765625 6.75 -2.859375 6.53125 -2.859375 C 6.320312 -2.859375 6.148438 -2.769531 6.015625 -2.59375 C 5.890625 -2.414062 5.828125 -2.148438 5.828125 -1.796875 C 5.828125 -1.429688 5.890625 -1.160156 6.015625 -0.984375 C 6.148438 -0.804688 6.320312 -0.71875 6.53125 -0.71875 Z M 6.53125 -0.71875 "/></g></g></g></svg>